<?xml version="1.0" standalone="no"?>
<!DOCTYPE svg PUBLIC "-//W3C//DTD SVG 20010904//EN"
 "http://www.w3.org/TR/2001/REC-SVG-20010904/DTD/svg10.dtd">
<svg version="1.0" xmlns="http://www.w3.org/2000/svg"
 width="510.000000pt" height="225.000000pt" viewBox="0 0 510.000000 225.000000"
 preserveAspectRatio="xMidYMid meet">

<g transform="translate(0.000000,225.000000) scale(0.100000,-0.100000)"
fill="#000000" stroke="none">
<path d="M1350 2190 c-146 -10 -322 -21 -391 -24 -380 -20 -872 -55 -880 -63
-4 -4 78 -3 184 4 289 18 1216 73 1345 80 66 4 108 10 100 14 -16 11 -35 10
-358 -11z"/>
<path d="M3441 2198 c-11 -4 -23 -19 -26 -33 -3 -14 -7 -36 -10 -50 l-5 -25
-828 -2 c-455 -2 -828 -2 -830 -1 -2 0 -7 23 -11 50 -7 47 -7 46 -15 -42 -5
-49 -11 -160 -15 -245 l-6 -155 -13 195 c-7 107 -14 206 -15 220 -2 25 -3 25
-82 22 -44 -2 -186 -10 -315 -18 -532 -32 -1077 -64 -1109 -64 l-33 0 6 -72
c3 -40 20 -314 37 -608 l32 -535 35 -75 c91 -196 177 -268 549 -454 116 -58
217 -106 223 -106 15 0 308 196 430 287 112 84 208 181 240 243 l24 45 9 -31
c25 -85 -113 -218 -478 -461 -99 -66 -190 -125 -202 -131 -18 -10 -41 -2 -157
53 -468 223 -581 312 -686 540 -38 82 -40 92 -50 238 -11 165 -33 531 -50 857
-7 113 -16 214 -20 225 -8 19 -9 19 -9 -1 -1 -12 10 -197 23 -410 14 -214 30
-486 36 -604 11 -197 14 -221 41 -287 82 -208 237 -350 539 -491 47 -22 134
-63 193 -91 60 -28 113 -51 118 -51 9 0 57 29 283 172 180 113 346 251 413
342 l43 60 11 -33 c31 -89 115 -209 196 -281 133 -117 553 -360 624 -360 68 0
453 223 632 365 73 58 147 158 183 247 15 37 31 68 35 68 4 0 27 -28 52 -63
67 -94 165 -180 324 -284 78 -51 145 -93 149 -93 4 0 51 -27 105 -60 53 -33
106 -60 117 -60 23 0 372 175 477 240 223 136 306 227 365 400 21 61 23 106
45 695 13 347 20 636 15 644 -7 14 -9 -27 -36 -794 -13 -395 -18 -458 -36
-520 -48 -163 -115 -248 -284 -358 -147 -96 -513 -297 -541 -297 -27 0 -457
273 -540 342 -112 94 -198 222 -187 277 8 39 18 39 34 0 21 -51 84 -141 129
-187 60 -60 161 -133 329 -237 81 -51 154 -103 168 -122 23 -30 30 -33 57 -27
18 3 39 12 47 19 8 6 60 36 115 65 388 206 527 308 585 431 53 113 58 160 75
759 9 305 18 565 20 577 5 20 0 22 -58 27 -34 3 -278 13 -542 21 -881 30 -927
31 -932 19 -2 -6 -8 -71 -12 -145 -8 -134 -8 -134 -10 -39 -1 62 -6 105 -16
124 -8 15 -15 50 -15 77 0 44 2 49 23 49 12 0 270 -9 572 -20 778 -27 1041
-34 1033 -25 -4 4 -323 18 -710 30 -387 13 -744 25 -795 27 -50 2 -101 0 -112
-4z m-860 -148 l819 0 0 -628 c0 -593 -1 -633 -20 -706 -28 -109 -72 -186
-147 -256 -57 -54 -251 -189 -360 -251 -193 -110 -284 -159 -292 -159 -13 0
-146 73 -316 173 -293 172 -381 259 -463 453 l-37 89 -3 643 c-2 435 -6 642
-13 642 -6 0 -7 5 -3 12 6 9 9 9 12 0 3 -9 194 -12 823 -12z m1837 -67 c25
-70 33 -111 38 -196 l7 -107 -89 -93 c-54 -55 -102 -117 -122 -155 -41 -76
-40 -78 76 -179 277 -241 469 -393 499 -393 7 0 13 -4 13 -10 0 -5 -13 -10
-30 -10 -28 0 -30 -3 -30 -35 0 -41 -11 -45 -30 -10 -22 41 -524 475 -550 475
-5 0 -10 -8 -10 -17 1 -35 28 -129 48 -169 30 -59 115 -148 200 -212 40 -29
76 -61 79 -69 13 -33 -110 -234 -252 -413 -56 -70 -85 -120 -85 -145 0 -17 -2
-18 -24 -9 -21 8 -20 24 2 25 16 0 16 1 0 7 -16 7 -16 10 1 47 10 22 57 89
104 148 86 107 159 218 193 290 18 37 18 37 -7 54 -53 37 -166 142 -205 190
-57 70 -87 150 -92 248 l-4 80 -115 95 c-342 283 -399 329 -407 327 -5 -2 -15
-18 -21 -36 l-11 -33 -17 73 c-10 41 -20 84 -23 97 -6 21 -4 22 77 22 l82 0
-21 -23 c-12 -13 -22 -28 -22 -33 0 -11 2 -12 294 -256 111 -92 204 -168 208
-168 4 0 14 16 23 35 16 40 57 94 158 208 l69 78 -7 82 c-4 45 -20 123 -36
173 -34 107 -34 104 -11 104 13 0 26 -22 50 -87z m-3578 -12 c5 -11 10 -24 10
-28 0 -5 -72 -90 -161 -188 -88 -99 -164 -187 -169 -196 -13 -24 15 -59 48
-59 38 0 259 73 277 92 4 4 -9 10 -30 14 -20 3 -42 15 -48 25 -7 11 -23 19
-37 19 -32 0 -45 10 -52 38 -6 23 1 28 18 13 10 -10 74 -23 74 -16 0 3 -11 23
-25 45 -18 29 -22 41 -13 44 7 1 29 9 48 16 19 7 52 15 73 17 28 4 37 9 35 22
-2 11 3 15 17 13 11 -2 22 -8 25 -12 3 -4 14 -9 25 -12 15 -2 20 -12 20 -33 0
-17 13 -57 28 -89 24 -52 26 -61 12 -68 -8 -5 -15 -23 -15 -41 l0 -32 108 -3
c59 -1 135 -10 169 -19 74 -19 96 -13 91 24 -4 32 -28 44 -28 14 0 -20 -2 -21
-27 -7 -16 7 -67 26 -114 41 -140 43 -169 69 -169 152 0 85 75 98 184 32 38
-23 86 -44 107 -46 42 -6 47 -14 24 -33 -9 -7 -14 -19 -11 -27 4 -9 -3 -13
-22 -14 -48 -2 -56 1 -90 36 -38 41 -42 42 -34 13 5 -20 0 -18 -36 15 -23 20
-48 37 -56 37 -22 0 -27 -29 -9 -56 25 -39 67 -55 161 -60 48 -3 102 -10 119
-16 44 -13 73 -52 73 -99 0 -52 -22 -72 -70 -64 -44 7 -55 -3 -34 -33 19 -28
65 -29 89 -2 10 11 22 17 26 14 5 -3 7 -46 5 -97 -4 -96 -28 -173 -67 -210
-11 -10 -19 -28 -19 -40 0 -13 -7 -32 -15 -43 -14 -18 -14 -18 -15 -1 0 15 -5
17 -30 12 -25 -6 -29 -4 -23 10 5 15 3 16 -15 6 -30 -16 -32 -15 -32 29 0 38
-2 40 -20 30 -16 -8 -20 -8 -20 3 0 21 33 47 76 59 78 21 78 52 0 65 -25 4
-52 17 -69 35 -35 34 -41 35 -33 4 4 -18 1 -25 -13 -29 -13 -3 -21 -18 -26
-46 -4 -24 -13 -45 -21 -48 -8 -3 -14 -10 -14 -17 0 -6 -29 -33 -65 -59 -36
-27 -65 -52 -65 -58 0 -5 -8 -9 -18 -9 -10 0 -23 -5 -30 -12 -9 -9 -13 -7 -18
6 -4 11 -13 15 -25 11 -13 -5 -19 -1 -19 10 0 8 -7 18 -15 21 -11 5 -12 11 -5
24 13 25 13 28 -7 33 -34 8 36 27 75 21 32 -5 41 -2 66 25 29 30 29 31 13 68
-23 56 -25 66 -16 91 11 29 5 28 -39 -7 -20 -16 -65 -38 -100 -48 -50 -15 -67
-26 -82 -51 -21 -35 -74 -72 -102 -72 -12 0 -18 -8 -18 -23 0 -29 -29 -68 -36
-49 -9 20 -34 14 -34 -9 0 -31 -23 -17 -34 20 -8 27 -13 31 -33 26 -25 -6 -29
5 -12 37 8 16 8 23 -2 29 -24 16 20 39 71 39 54 0 69 12 99 83 21 49 21 50
-18 47 -14 -1 -48 1 -78 5 -47 6 -55 10 -69 38 -24 48 -53 75 -73 70 -23 -6
-43 20 -39 49 3 25 60 68 92 68 16 1 57 51 160 195 133 185 141 195 173 195
22 0 36 -6 43 -19z m354 -1128 c11 -40 22 -41 57 -7 54 51 63 -7 13 -74 -14
-18 -28 -49 -30 -70 -5 -35 -5 -36 11 -17 9 11 22 29 30 40 12 17 16 18 24 5
23 -32 11 -58 -49 -110 -78 -68 -77 -93 2 -38 52 36 68 10 21 -33 -41 -37 -74
-55 -114 -63 -39 -7 -43 -13 -87 -121 -25 -63 -32 -70 -58 -73 -27 -3 -32 2
-56 55 -50 107 -64 123 -103 123 -65 0 -172 67 -147 92 4 4 26 -1 47 -12 84
-43 87 -18 5 34 -63 40 -80 60 -80 95 0 31 25 25 54 -11 20 -25 26 -29 26 -15
0 23 -13 48 -56 104 -19 25 -34 51 -34 58 0 27 22 27 49 1 15 -14 32 -26 38
-26 13 0 23 23 23 51 0 26 26 35 56 19 31 -17 30 -31 -2 -80 -22 -34 -25 -46
-20 -84 14 -93 108 -189 184 -189 52 0 75 15 122 77 67 89 71 176 11 230 -25
23 -26 34 -6 56 26 28 58 20 69 -17z"/>
<path d="M1810 1395 l0 -605 34 -84 c75 -187 176 -285 456 -446 41 -23 118
-68 170 -98 52 -30 102 -55 110 -54 8 0 71 33 140 72 428 246 540 340 602 505
23 60 23 64 26 688 l3 627 -771 0 -770 0 0 -605z m1466 557 c33 -22 34 -50 34
-622 -1 -562 -1 -572 -22 -628 -12 -31 -21 -60 -20 -64 1 -4 -28 -40 -65 -79
-76 -80 -175 -153 -343 -254 -63 -37 -148 -88 -189 -113 -103 -61 -128 -63
-177 -18 -21 19 -102 73 -179 119 -175 104 -214 132 -297 213 -70 70 -113 140
-147 241 -20 60 -21 81 -21 616 0 543 0 554 20 575 l21 22 687 0 c378 0 692
-4 698 -8z"/>
<path d="M2736 1760 c-46 -40 -76 -108 -83 -187 -6 -59 -8 -64 -27 -59 -12 3
-59 11 -106 18 l-85 12 0 76 c0 101 -18 130 -78 130 -23 -1 -52 -6 -64 -13
-31 -18 -66 -65 -59 -82 8 -22 22 -18 45 11 l21 27 -6 -30 c-8 -41 13 -54 37
-22 l17 24 6 -25 c18 -87 17 -100 -3 -100 -11 0 -26 -3 -34 -6 -9 -3 -27 8
-47 29 -59 66 -129 73 -197 21 -62 -47 -81 -130 -42 -193 19 -32 19 -36 5 -72
-22 -55 -20 -101 8 -141 22 -34 23 -35 5 -47 -42 -26 -4 -102 70 -140 20 -11
46 -30 59 -44 19 -20 21 -28 12 -51 -15 -40 -13 -159 3 -181 24 -32 34 -9 30
72 -5 95 4 114 40 87 24 -17 25 -23 20 -74 -6 -64 15 -130 43 -130 13 0 15 6
9 33 -15 69 -17 105 -7 111 6 3 36 -5 67 -19 43 -19 56 -29 51 -41 -15 -39
-18 -96 -6 -124 20 -47 35 -31 35 38 1 34 6 67 12 73 15 15 49 6 44 -12 -11
-42 -12 -109 -2 -128 17 -31 31 -16 31 34 0 24 5 54 10 67 11 22 14 23 128 20
136 -5 205 8 282 50 30 17 88 42 129 57 98 35 104 46 64 118 -17 32 -43 93
-56 136 -14 42 -39 99 -57 127 -35 54 -145 162 -197 192 -18 11 -33 23 -33 26
0 4 14 16 31 27 45 29 107 111 120 157 17 66 -18 118 -80 118 -9 0 -27 14 -39
30 -31 41 -78 41 -126 0z m114 -30 c9 -17 5 -23 -27 -43 -47 -30 -110 -98
-129 -141 -15 -31 -15 -31 -11 25 4 71 41 147 86 176 36 25 62 19 81 -17z m88
-46 c30 -21 28 -50 -11 -114 -43 -73 -115 -122 -170 -118 -53 4 -65 23 -48 79
16 52 104 144 152 157 48 14 52 14 77 -4z m-707 -123 c37 -38 37 -60 -3 -97
-17 -16 -28 -24 -24 -17 3 6 -6 21 -20 32 -31 24 -52 28 -34 6 7 -9 -4 -6 -29
8 -32 17 -37 23 -23 28 16 6 16 7 0 14 -25 10 -22 22 10 39 45 25 90 20 123
-13z m-157 -57 c11 -4 14 -13 10 -30 -7 -29 19 -43 48 -25 16 10 25 7 59 -19
32 -26 38 -36 33 -56 -7 -29 19 -43 48 -25 22 13 42 5 77 -33 24 -26 24 -26 5
-41 -10 -8 -37 -15 -60 -15 -55 0 -87 33 -86 89 1 39 -10 53 -23 31 -3 -5 -26
-10 -51 -10 -62 0 -94 32 -94 95 0 45 5 50 34 39z m379 -28 c9 -12 25 -56 37
-95 41 -134 17 -270 -70 -397 -33 -47 -85 -84 -120 -84 -14 0 -42 20 -74 51
-28 28 -68 58 -89 66 -38 16 -77 55 -77 79 0 22 24 16 35 -8 14 -30 91 -67
142 -68 33 0 46 5 62 26 25 32 26 57 4 95 -22 37 -68 58 -154 71 -98 15 -105
21 -84 86 l17 52 48 0 c47 0 49 -1 60 -36 23 -68 104 -93 180 -54 45 23 65 50
74 100 9 52 -6 92 -44 118 l-33 22 35 0 c26 0 40 -6 51 -24z m-58 -21 c14 -13
25 -34 26 -47 2 -47 -3 -73 -17 -84 -7 -6 -10 -15 -6 -19 4 -4 -13 7 -38 26
-25 19 -57 42 -70 52 -14 10 -4 6 23 -9 53 -29 64 -20 14 13 -44 30 -67 38
-67 23 0 -10 -3 -10 -15 0 -22 18 -19 28 18 50 46 28 102 26 132 -5z m311 -14
c5 -5 27 -14 49 -21 94 -29 131 -88 142 -226 4 -56 1 -86 -15 -141 -25 -82
-108 -225 -158 -271 -34 -32 -38 -33 -87 -27 -94 13 -93 7 -17 133 100 163
115 206 113 322 0 75 -6 110 -26 168 -24 67 -24 84 -1 63z m-621 -251 c3 -5 1
-10 -4 -10 -6 0 -11 5 -11 10 0 6 2 10 4 10 3 0 8 -4 11 -10z m35 -12 c0 -16
-3 -19 -11 -11 -6 6 -8 16 -5 22 11 17 16 13 16 -11z m40 -8 c0 -11 -4 -20
-10 -20 -5 0 -10 9 -10 20 0 11 5 20 10 20 6 0 10 -9 10 -20z m48 -8 c2 -14
-2 -22 -12 -22 -19 0 -29 17 -22 36 8 22 30 12 34 -14z m42 -2 c0 -5 -4 -10
-10 -10 -5 0 -10 5 -10 10 0 6 5 10 10 10 6 0 10 -4 10 -10z m839 -131 c2 -70
-27 -141 -80 -191 -27 -27 -53 -48 -59 -48 -6 0 5 24 25 53 43 65 81 157 91
222 6 43 9 46 15 25 4 -14 7 -41 8 -61z m-886 51 c33 0 67 -16 67 -32 0 -16
-85 -4 -116 17 -21 13 -24 19 -13 26 8 5 18 4 23 -1 6 -6 23 -10 39 -10z"/>
<path d="M2339 1098 c6 -15 4 -32 -5 -50 -9 -17 -10 -28 -4 -28 17 0 33 46 26
74 -3 14 -11 26 -16 26 -6 0 -6 -9 -1 -22z"/>
<path d="M634 1788 c-135 -184 -167 -235 -108 -172 l26 29 -17 -30 c-23 -39
-18 -34 154 158 123 137 165 197 132 185 -6 -1 -53 -56 -106 -122 -126 -156
-165 -201 -165 -191 0 10 240 308 252 313 15 7 8 22 -10 22 -11 0 -68 -69
-158 -192z"/>
<path d="M840 1758 c0 -17 32 -21 46 -6 13 13 11 15 -16 15 -16 0 -30 -4 -30
-9z"/>
<path d="M800 1690 c0 -5 16 -10 36 -10 21 0 33 4 29 10 -3 6 -19 10 -36 10
-16 0 -29 -4 -29 -10z"/>
<path d="M937 1684 c-8 -8 3 -34 14 -34 5 0 9 9 9 20 0 19 -11 26 -23 14z"/>
<path d="M805 1661 c-7 -12 31 -25 45 -16 6 4 8 11 5 16 -8 12 -42 12 -50 0z"/>
<path d="M951 1584 c0 -11 3 -14 6 -6 3 7 2 16 -1 19 -3 4 -6 -2 -5 -13z"/>
<path d="M460 1575 c0 -8 9 -19 20 -25 15 -8 20 -8 20 3 0 14 -19 37 -32 37
-4 0 -8 -7 -8 -15z"/>
<path d="M440 1556 c0 -11 30 -39 36 -34 2 3 -5 13 -16 23 -11 10 -20 15 -20
11z"/>
<path d="M422 1519 c2 -7 10 -15 17 -17 8 -3 12 1 9 9 -2 7 -10 15 -17 17 -8
3 -12 -1 -9 -9z"/>
<path d="M965 1430 c-3 -5 -17 -10 -30 -10 -13 0 -27 -5 -30 -10 -4 -7 -12 -7
-25 0 -13 7 -21 6 -30 -5 -9 -11 -17 -12 -31 -4 -15 7 -19 6 -19 -6 0 -18 -12
-19 -28 -3 -9 10 -16 8 -30 -6 -16 -18 -16 -19 1 -13 10 4 27 1 38 -6 16 -10
21 -9 28 2 5 7 14 10 20 6 7 -4 18 -2 26 5 8 6 22 10 32 9 10 -1 26 1 36 6 9
4 26 5 37 2 13 -3 20 0 20 9 0 8 9 14 20 14 11 0 20 5 20 10 0 6 -11 10 -24
10 -14 0 -28 -4 -31 -10z"/>
<path d="M1129 844 c-11 -14 -10 -19 7 -33 43 -35 54 -63 48 -116 -7 -54 -22
-86 -69 -152 -24 -33 -40 -44 -78 -53 -73 -19 -105 -7 -162 59 -79 91 -97 174
-50 229 29 35 31 48 9 56 -31 12 -44 6 -44 -18 0 -29 -27 -59 -43 -50 -7 4
-22 16 -34 27 -35 31 -39 12 -7 -29 41 -51 61 -85 68 -116 8 -36 -9 -36 -46
-1 -15 14 -31 24 -34 21 -12 -13 15 -44 72 -83 64 -44 81 -75 42 -75 -13 1
-34 7 -48 15 -34 19 -45 19 -29 -1 20 -24 95 -54 134 -54 31 0 37 -6 68 -58
19 -32 38 -71 44 -87 5 -17 13 -29 16 -27 4 1 15 2 25 2 12 0 26 19 45 63 15
34 27 67 27 73 0 20 41 54 68 55 36 1 116 50 121 74 3 16 -2 14 -29 -8 -34
-29 -64 -35 -76 -15 -5 7 19 35 61 73 55 50 67 66 61 81 -8 19 -8 19 -19 0 -7
-11 -21 -29 -32 -40 l-20 -21 -3 38 c-2 25 3 49 17 70 60 94 66 135 12 75
l-31 -33 -20 24 c-11 13 -20 29 -20 37 0 19 -35 18 -51 -2z"/>
</g>
</svg>
